<svg width="25" height="25" viewBox="0 0 25 25" fill="none" xmlns="http://www.w3.org/2000/svg">
<path d="M7.84863 9.01154H17.1508M7.84863 13.0813H14.2439" stroke="#333333" stroke-opacity="0.5" stroke-width="1.5" stroke-linecap="round"/>
<path d="M0 10.7557C0 10.987 0.0918799 11.2088 0.255427 11.3723C0.418974 11.5359 0.640792 11.6278 0.872083 11.6278C1.10337 11.6278 1.32519 11.5359 1.48874 11.3723C1.65229 11.2088 1.74417 10.987 1.74417 10.7557H0ZM2.12091 16.7161C2.0324 16.5024 1.86262 16.3326 1.64892 16.244C1.43522 16.1555 1.1951 16.1555 0.981384 16.244C0.767671 16.3325 0.597871 16.5023 0.509337 16.716C0.420804 16.9297 0.420789 17.1698 0.509296 17.3835L2.12091 16.7161ZM14.5138 23.8602L15.144 22.7951L13.644 21.9067L13.0126 22.9718L14.5138 23.8602ZM9.8557 22.7951L10.4859 23.8602L11.9859 22.9718L11.3568 21.9067L9.8557 22.7951ZM13.0126 22.9718C12.9583 23.0588 12.8827 23.1305 12.793 23.1803C12.7033 23.23 12.6024 23.2561 12.4999 23.2561C12.3973 23.2561 12.2964 23.23 12.2067 23.1803C12.117 23.1305 12.0414 23.0588 11.9871 22.9718L10.4859 23.8602C11.3847 25.3799 13.6138 25.3799 14.5138 23.8602L13.0126 22.9718ZM10.7557 1.74417H14.244V4.84249e-07H10.7557V1.74417ZM23.2555 10.7557V11.9185H24.9997V10.7557H23.2555ZM7.61968 19.7579C6.15923 19.7323 5.39412 19.6393 4.79413 19.3905L4.12786 21.0021C5.06389 21.3904 6.129 21.4777 7.58945 21.5032L7.61968 19.7579ZM0.509296 17.3835C0.845298 18.1947 1.3378 18.9318 1.95867 19.5527C2.57955 20.1736 3.31664 20.6661 4.12786 21.0021L4.79413 19.3905C3.5833 18.8889 2.62247 17.9269 2.12091 16.7161L0.509296 17.3835ZM23.2555 11.9185C23.2555 13.2847 23.2555 14.2661 23.2021 15.0405C23.1497 15.8068 23.0497 16.3068 22.88 16.7161L24.4904 17.3835C24.7637 16.7254 24.8834 16.0138 24.9427 15.1591C25.0009 14.3115 24.9997 13.2615 24.9997 11.9185H23.2555ZM17.4103 21.5009C18.8707 21.4765 19.9358 21.3904 20.8718 21.0021L20.2044 19.3905C19.6056 19.6393 18.8405 19.7323 17.3812 19.7579L17.4103 21.5009ZM22.88 16.7161C22.3784 17.9269 21.4164 18.8889 20.2056 19.3905L20.8718 21.0021C21.6831 20.6661 22.4202 20.1736 23.041 19.5527C23.6619 18.9318 24.1544 18.1947 24.4904 17.3835L22.88 16.7161ZM14.244 1.74417C16.1638 1.74417 17.5428 1.74417 18.6184 1.84765C19.6812 1.94881 20.3567 2.14184 20.8963 2.47206L21.8067 0.984873C20.9474 0.459297 19.973 0.224416 18.7835 0.110464C17.6068 -0.00116226 16.13 4.84249e-07 14.244 4.84249e-07V1.74417ZM24.9997 10.7557C24.9997 8.86966 24.9997 7.3941 24.8881 6.21621C24.7753 5.02669 24.5404 4.05112 24.0148 3.19299L22.5265 4.10344C22.8579 4.64297 23.0509 5.31854 23.1521 6.38248C23.2544 7.45689 23.2555 8.83594 23.2555 10.7557H24.9997ZM20.8951 2.47206C21.5604 2.87938 22.1199 3.43842 22.5276 4.10344L24.0148 3.19299C23.4634 2.29297 22.7067 1.5363 21.8067 0.984873L20.8951 2.47206ZM10.7557 4.84249e-07C8.86966 4.84249e-07 7.3941 5.19802e-07 6.21621 0.110464C5.02669 0.224416 4.05112 0.459297 3.19299 0.984873L4.10344 2.47323C4.64297 2.14184 5.31854 1.94881 6.38248 1.84765C7.45689 1.74533 8.83594 1.74417 10.7557 1.74417V4.84249e-07ZM1.74417 10.7557C1.74417 8.83594 1.74417 7.45689 1.84765 6.38132C1.94881 5.31854 2.14184 4.64297 2.47206 4.10344L0.984872 3.19415C0.459297 4.05228 0.224416 5.02669 0.110464 6.21621C3.46535e-08 7.39526 0 8.86966 0 10.7557H1.74417ZM3.19299 0.984873C2.29297 1.5363 1.5363 2.29413 0.984872 3.19415L2.47323 4.10344C2.88036 3.43868 3.43897 2.87967 4.10344 2.47206L3.19299 0.984873ZM11.3557 21.9067C11.1208 21.5079 10.9138 21.1556 10.7115 20.8788C10.5034 20.5754 10.2331 20.3197 9.91849 20.1288L9.04175 21.637C9.09641 21.6695 9.17199 21.7277 9.30222 21.9067C9.44291 22.0997 9.60221 22.3672 9.8557 22.7951L11.3557 21.9067ZM7.58945 21.5009C8.10107 21.5102 8.42316 21.5172 8.66967 21.5439C8.8999 21.5695 8.98943 21.6067 9.04175 21.637L9.91849 20.1288C9.59292 19.9485 9.23254 19.8398 8.86152 19.8102C8.51502 19.7719 8.09874 19.766 7.61968 19.7579L7.58945 21.5009ZM15.144 22.7951C15.3975 22.3683 15.5568 22.0997 15.6975 21.9067C15.8277 21.7277 15.9033 21.6695 15.958 21.637L15.0812 20.1288C14.744 20.3265 14.4998 20.5881 14.2882 20.8788C14.087 21.1556 13.8789 21.5067 13.6429 21.9067L15.144 22.7951ZM17.3812 19.7579C16.9021 19.766 16.4847 19.7719 16.1382 19.8102C15.7766 19.8509 15.4219 19.9312 15.0812 20.1288L15.958 21.637C16.0103 21.6067 16.0998 21.5695 16.33 21.5439C16.5765 21.5172 16.8998 21.509 17.4114 21.5009L17.3812 19.7579Z" fill="#333333" fill-opacity="0.5"/>
</svg>
